<svg width="16" height="16" viewBox="0 0 16 16" fill="none" xmlns="http://www.w3.org/2000/svg">
<path d="M15.7849 7.53231L7.16947 0.147692C7.0587 0.0516923 6.91593 0 6.76947 0H0.61562C0.35839 0 0.128236 0.16 0.0383897 0.402462C-0.0514564 0.643692 0.0199282 0.915692 0.21562 1.08308L8.28577 8L0.21562 14.9169C0.0199282 15.0855 -0.0502257 15.3563 0.0383897 15.5988C0.128236 15.84 0.35839 16 0.61562 16H6.76947C6.91593 16 7.0587 15.9471 7.16947 15.8523L15.7849 8.46646C15.9227 8.34954 16.0002 8.17969 16.0002 8C16.0002 7.82031 15.9227 7.64923 15.7849 7.53231Z" fill="#EEEEEE"/>
</svg>
