<svg width="16" height="17" viewBox="0 0 16 17" fill="none" xmlns="http://www.w3.org/2000/svg">
<path d="M5.92595 4.52073C4.04066 6.47584 4.45207 9.7204 6.61163 11.1577C6.68278 11.2051 6.77745 11.1957 6.83857 11.1358C7.29321 10.6906 7.67782 10.2593 8.0146 9.71078C8.06612 9.62686 8.03408 9.51796 7.94763 9.47102C7.61823 9.29215 7.29046 8.95676 7.10594 8.60247L7.10572 8.6026C6.88469 8.16145 6.80943 7.66693 6.92646 7.15621C6.92658 7.15624 6.92671 7.15627 6.92683 7.15627C7.06148 6.50241 7.76183 5.89417 8.29672 5.33165C8.2956 5.33128 8.29451 5.33087 8.29338 5.33049L10.2975 3.28028C11.0962 2.46325 12.4099 2.45652 13.2168 3.26534C14.0319 4.06582 14.0454 5.38922 13.2468 6.20622L12.0329 7.45741C11.9767 7.51532 11.9585 7.59981 11.9848 7.67617C12.2643 8.48857 12.333 9.63407 12.1457 10.4995C12.1404 10.5237 12.1703 10.5396 12.1876 10.5219L14.7712 7.87886C16.4216 6.19046 16.4076 3.44151 14.74 1.77009C13.0383 0.064365 10.2678 0.0785603 8.58348 1.80159L5.93629 4.50964C5.93279 4.51334 5.92948 4.5171 5.92595 4.52073Z" fill="#7F8387"/>
<path d="M10.756 11.53C10.756 11.5301 10.7559 11.5302 10.7559 11.5303C10.7575 11.5296 10.7591 11.5289 10.7607 11.5282C11.288 10.5618 11.3918 9.45349 11.1447 8.37305L11.1435 8.37421L11.1423 8.37367C10.9077 7.41137 10.2639 6.4558 9.38947 5.86747C9.31425 5.81686 9.1941 5.82272 9.12366 5.87981C8.68075 6.23877 8.24721 6.69907 7.96114 7.28646C7.91622 7.37869 7.94986 7.48946 8.0384 7.54098C8.37039 7.73416 8.67021 8.01701 8.87096 8.39251L8.87127 8.39229C9.02771 8.65755 9.18188 9.16087 9.08202 9.70167C9.08196 9.70167 9.08186 9.70167 9.0818 9.70167C8.98863 10.4187 8.26625 11.0764 7.69199 11.669L7.69227 11.6693C7.25514 12.1173 6.14392 13.2528 5.69897 13.7084C4.90034 14.5254 3.58 14.5389 2.76488 13.7384C1.94977 12.9379 1.93629 11.6145 2.73493 10.7975L3.95244 9.54258C4.00762 9.4857 4.02638 9.40304 4.00184 9.32761C3.7315 8.49623 3.65744 7.37656 3.82808 6.51208C3.83283 6.48799 3.80325 6.4726 3.78609 6.49015L1.24136 9.09341C-0.426015 10.7991 -0.411884 13.5763 1.27281 15.2648C2.97451 16.936 5.73096 16.9078 7.39827 15.2021C7.97749 14.5527 10.457 12.2517 10.756 11.53Z" fill="#7F8387"/>
</svg>
