<svg width="16" height="16" viewBox="0 0 16 16" fill="none" xmlns="http://www.w3.org/2000/svg">
<g clip-path="url(#clip0)">
<path d="M5.33387 5.33327C8.38619 5.33327 10.6669 4.12663 10.6669 3.0477C10.6669 1.96888 8.38614 0.762192 5.33387 0.762192C2.28159 0.762192 0.000854492 1.96888 0.000854492 3.0477C0.000854492 4.12663 2.28154 5.33327 5.33387 5.33327Z" fill="#33AACF"/>
<path d="M5.33301 14.4758C5.77852 14.4758 6.20732 14.4499 6.61519 14.4027C6.27138 13.9609 5.98705 13.4706 5.77405 12.944C5.6277 12.9489 5.48084 12.9523 5.33296 12.9523C3.58887 12.9523 1.93718 12.6067 0.682285 11.9792C0.435198 11.8557 0.20782 11.723 0 11.5824V12.1903C0 13.2691 2.28069 14.4758 5.33301 14.4758Z" fill="#33AACF"/>
<path d="M5.33294 11.4283C5.34859 11.4283 5.36398 11.428 5.37957 11.428C5.34833 11.1783 5.33203 10.9239 5.33203 10.6659C5.33203 10.4079 5.34828 10.1537 5.37957 9.90419C5.36398 9.90419 5.34854 9.90475 5.33294 9.90475C3.58885 9.90475 1.93721 9.55916 0.682265 8.9317C0.435126 8.80815 0.207698 8.67542 -0.00012207 8.53496V9.14277C-7.1271e-05 10.2216 2.28061 11.4283 5.33294 11.4283Z" fill="#33AACF"/>
<path d="M5.33294 8.38071C5.48412 8.38071 5.63327 8.37767 5.78053 8.37187C6.01705 7.79159 6.34029 7.25561 6.73439 6.78029C6.27811 6.83058 5.80918 6.85725 5.33294 6.85725C3.58885 6.85725 1.93721 6.51166 0.682265 5.88419C0.435126 5.76059 0.207698 5.62791 -0.00012207 5.4874V6.09526C-7.1271e-05 7.17413 2.28061 8.38071 5.33294 8.38071Z" fill="#33AACF"/>
<path d="M7.61881 8.14028C7.28912 8.63593 7.05357 9.19924 6.93769 9.80457C6.8842 10.0836 6.85596 10.3715 6.85596 10.6659C6.85596 10.8872 6.87211 11.1048 6.90264 11.3178C6.97767 11.8411 7.1416 12.3359 7.37863 12.7866C7.62735 13.2596 7.95638 13.6841 8.34768 14.0414C9.16088 14.7842 10.2424 15.2378 11.4279 15.2378C13.9489 15.2378 15.9999 13.1868 15.9999 10.6659C15.9999 8.14485 13.9489 6.09393 11.4279 6.09393C11.1674 6.09393 10.9119 6.11618 10.6631 6.15824C9.39573 6.37257 8.30415 7.11012 7.61881 8.14028Z" fill="#33AACF"/>
</g>
<defs>
<clipPath id="clip0">
<rect width="16" height="16" fill="white"/>
</clipPath>
</defs>
</svg>
