<svg width="16" height="16" viewBox="0 0 16 16" fill="none" xmlns="http://www.w3.org/2000/svg">
<g clip-path="url(#clip0)">
<path d="M15.672 0.00200011C12.5487 -0.0539999 8.98667 1.57867 6.73201 4.11133C4.57734 4.152 2.47934 5.03533 0.934673 6.58C0.844673 6.66866 0.812673 6.80133 0.852006 6.92133C0.892006 7.042 0.996006 7.12933 1.12134 7.14733L3.69067 7.51533L3.37334 7.87066C3.25534 8.00266 3.26134 8.20333 3.38667 8.32866L7.67134 12.6133C7.73601 12.678 7.82134 12.7107 7.90734 12.7107C7.98667 12.7107 8.06601 12.6827 8.12934 12.626L8.48467 12.3087L8.85267 14.878C8.87067 15.0033 8.96934 15.0953 9.08867 15.1353C9.11934 15.1453 9.15134 15.15 9.18401 15.15C9.27867 15.15 9.37534 15.1087 9.44201 15.0427C10.9653 13.5193 11.8487 11.4213 11.8893 9.26666C14.4247 7.00733 16.0707 3.44666 15.998 0.327333C15.9933 0.15 15.85 0.00666677 15.672 0.00200011ZM12.6 5.75666C12.2753 6.08133 11.8487 6.244 11.4213 6.244C10.994 6.244 10.5673 6.08133 10.2427 5.75666C9.59334 5.10666 9.59334 4.04933 10.2427 3.39933C10.8927 2.74933 11.95 2.74933 12.6 3.39933C13.25 4.04933 13.25 5.10733 12.6 5.75666Z" fill="#33AACF"/>
<path d="M1.81604 11.27C1.10271 11.9833 0.123372 15.206 0.0140383 15.5707C-0.0212951 15.688 0.0113716 15.8153 0.0973716 15.902C0.161372 15.966 0.246038 16 0.333372 16C0.365372 16 0.397372 15.9953 0.429372 15.986C0.794038 15.8767 4.0167 14.8973 4.73004 14.184C5.53337 13.3807 5.53337 12.0733 4.73004 11.27C3.92604 10.4667 2.61937 10.4673 1.81604 11.27Z" fill="#33AACF"/>
</g>
<defs>
<clipPath id="clip0">
<rect width="16" height="16" fill="white"/>
</clipPath>
</defs>
</svg>
