<svg width="16" height="12" viewBox="0 0 16 12" fill="none" xmlns="http://www.w3.org/2000/svg">
<path d="M16 1.6508V6.49417C16 6.49417 14.9634 6.69839 14.7499 6.72525C14.537 6.75205 13.868 6.96805 13.3832 6.50205C12.6355 5.78547 9.97909 3.14368 9.97909 3.14368C9.97909 3.14368 9.52106 2.69424 8.78563 3.08267C8.11054 3.43849 7.10981 3.95995 6.69181 4.16301C5.90163 4.58359 5.24671 3.9163 5.24671 3.40801C5.24671 3.01375 5.49273 2.74615 5.84442 2.54936C6.79753 1.97156 8.80642 0.843963 9.64312 0.399398C10.1517 0.128902 10.5181 0.105723 11.2164 0.693945C12.0763 1.41717 12.8416 2.07642 12.8416 2.07642C12.8416 2.07642 13.0912 2.28474 13.4893 2.20084C14.4668 1.99416 16 1.6508 16 1.6508ZM5.42665 9.85741C5.5553 9.5269 5.5123 9.15723 5.26566 8.90362C5.04404 8.67677 4.72047 8.61698 4.41194 8.68768C4.49823 8.38168 4.45058 8.05598 4.22777 7.82612C4.00547 7.59985 3.68252 7.53887 3.37402 7.61022C3.45967 7.30466 3.41215 6.97899 3.1892 6.74982C2.8401 6.39174 2.23625 6.40711 1.83956 6.78523C1.44497 7.16388 1.1922 7.84988 1.54437 8.25368C1.89596 8.65543 2.29995 8.41099 2.60792 8.34081C2.52224 8.64636 2.26553 8.93058 2.58168 9.33053C2.89753 9.73067 3.33722 9.48791 3.64552 9.41837C3.55955 9.72276 3.31404 10.0355 3.61805 10.4063C3.9248 10.7783 4.42721 10.5801 4.75905 10.477C4.63098 10.8063 4.35687 11.1612 4.70904 11.5589C5.06066 11.9595 5.87325 11.7742 6.27017 11.3955C6.66602 11.0168 6.70401 10.4167 6.35584 10.0575C6.11547 9.81109 5.75713 9.75375 5.42665 9.85741ZM12.6691 7.33762C9.79979 4.46831 11.1494 5.81846 9.60526 4.27103C9.60526 4.27103 9.14119 3.80903 8.52956 4.07739C8.1002 4.26554 7.54743 4.52196 7.1315 4.71772C6.67444 4.95739 6.34551 5.03157 6.19107 5.03054C5.3075 5.02476 4.59063 4.31458 4.59063 3.43187C4.59063 2.85924 4.89463 2.3607 5.34804 2.07771C5.98563 1.6365 7.4532 0.855907 7.4532 0.855907C7.4532 0.855907 7.00611 0.289379 6.02672 0.289379C5.04762 0.289379 3.002 1.6295 3.002 1.6295C3.002 1.6295 2.42168 2.0012 1.59444 1.6664L0 1.11117V6.65336C0 6.65336 0.455282 6.78514 0.864368 6.95223C0.956761 6.68874 1.10584 6.44543 1.31265 6.24447C1.99132 5.59804 3.11625 5.59132 3.73372 6.22713C3.91973 6.42041 4.04954 6.65097 4.11578 6.90584C4.36458 6.98264 4.58995 7.11868 4.77105 7.30527C4.95762 7.49726 5.08694 7.72911 5.15373 7.98269C5.40225 8.05956 5.62729 8.19611 5.80901 8.38284C6.01365 8.59387 6.14998 8.84877 6.21364 9.12495C6.47342 9.20062 6.70818 9.34141 6.89726 9.53471C7.26834 9.91588 7.40006 10.433 7.32026 10.9318C7.3209 10.9318 7.32213 10.9318 7.32271 10.933C7.32878 10.9409 7.55263 11.1905 7.69222 11.3312C7.96578 11.605 8.41248 11.605 8.68688 11.3312C8.95947 11.0575 8.96067 10.6117 8.68688 10.3366C8.67706 10.3268 7.69993 9.3047 7.77857 9.22545C7.85663 9.14674 9.10155 10.4421 9.12473 10.4658C9.39794 10.7391 9.84434 10.7391 10.1188 10.4658C10.3926 10.1921 10.392 9.74626 10.1188 9.4718C10.1053 9.45901 10.0493 9.40533 10.0285 9.38396C10.0285 9.38396 8.79422 8.28441 8.88816 8.19047C8.98326 8.09594 10.5164 9.52671 10.5189 9.52671C10.7945 9.7749 11.219 9.77306 11.4842 9.50779C11.7421 9.24985 11.7477 8.84183 11.519 8.56688C11.5141 8.55226 10.3505 7.33623 10.4413 7.24474C10.5335 7.15206 11.6848 8.33761 11.6873 8.34006C11.9599 8.61327 12.4069 8.61327 12.6813 8.34006C12.9545 8.06682 12.9545 7.62045 12.6813 7.34479C12.6776 7.34246 12.6727 7.34001 12.6691 7.33762Z" fill="#33AACF"/>
</svg>
