<svg viewBox="0 0 589 263" fill="none" xmlns="http://www.w3.org/2000/svg">
<path fill-rule="evenodd" clip-rule="evenodd" d="M266.456 0L264.887 0.315054C261.292 1.03658 257.766 2.06193 254.345 3.38006L248.846 5.4989L248.265 5.49838L104.151 200.142H190.208L211.456 171.413C210.173 175.006 209.362 178.751 209.045 182.553L208.751 186.068L155.921 257.501L156.691 255.92C158.497 252.217 159.217 248.086 158.781 244.004L76.7134 244.004L90.763 263L90.6092 262.877C87.3608 260.29 83.8711 258.021 80.1883 256.101L75.8576 253.844L23.0271 182.411L23.5998 182.96C27.6736 186.865 32.5714 189.806 37.9325 191.567L43.4485 199.026L185.975 5.49838L143.185 5.4989L145.638 5.19012C150.992 4.5161 156.151 2.74956 160.795 0H266.456Z"/>
<path fill-rule="evenodd" clip-rule="evenodd" d="M500.016 0L498.447 0.315054C494.853 1.03658 491.326 2.06193 487.905 3.38006L482.406 5.4989L481.826 5.49838L337.711 200.142H423.148L436.946 181.112C439.988 181.112 442.943 180.093 445.338 178.218L447.983 176.147L389.481 257.501L390.252 255.92C392.058 252.217 392.778 248.086 392.341 244.004L310.274 244.004L324.323 263L324.17 262.877C320.921 260.29 317.431 258.021 313.749 256.101L309.418 253.844L256.587 182.411L257.16 182.96C261.234 186.865 266.132 189.806 271.493 191.567L277.009 199.026L419.535 5.49838L376.745 5.4989L379.198 5.19012C384.553 4.5161 389.712 2.74956 394.355 0H500.016Z"/>
<path fill-rule="evenodd" clip-rule="evenodd" d="M267.736 75.6125L275.854 81.8617L276.919 81.6422C276.661 81.7884 276.405 81.9379 276.151 82.0905L313.27 110.666L313.616 113.406C313.925 115.849 314.664 118.218 315.8 120.403L308.565 114.834L223.837 226.781L178.612 243.275L287.33 98.4864L270.966 85.8881C270.498 86.3009 270.042 86.7262 269.596 87.1638L267.416 89.3047L266.723 89.4478L215.118 156.458L215.045 156.567C214.097 157.959 213.095 159.313 212.041 160.627L208.711 164.778L208.459 165.106L207.685 165.367L149.324 191.764L150.069 191.214C152.978 189.068 155.049 185.976 155.926 182.469L168.053 176.602L225.492 97.9526L199.292 103.357L200.247 102.953C203.77 101.463 206.753 98.9298 208.794 95.6946L270.402 82.9862C270.311 80.3999 269.435 77.8817 267.861 75.7803L267.736 75.6125Z"/>
<path fill-rule="evenodd" clip-rule="evenodd" d="M569.144 166.382L501.001 256.178C503.154 251.811 501.531 246.522 497.299 244.115L495.58 243.137L427.645 243.138L472.138 216.86L502.436 216.86L524.597 188.05L520.051 182.75C517.638 180.465 514.687 178.808 511.454 177.942L511.112 177.854L509.792 177.525L515.575 177.524L542.827 175.764L550.315 174.464C556.97 173.308 563.271 170.645 568.735 166.682L569.144 166.382ZM588.835 85.475L587.506 85.8014C583.141 86.8736 579.23 89.3 576.332 92.7284L576.105 93.0011L559.531 93.1778L475.491 205.838L411.144 246.422L523.102 93.5671L510.604 93.7005L467.436 148.38L432.008 158.542L420.482 162.92L422.974 160.701C424.61 159.244 425.769 157.328 426.302 155.203L432.834 152.722L470.5 101.388L445.478 106.457L446.373 106.073C449.871 104.571 452.823 102.033 454.833 98.8002L515.446 87.0991C515.548 86.9762 515.648 86.8517 515.747 86.7256L588.835 85.475Z"/>
<path fill-rule="evenodd" clip-rule="evenodd" d="M292.773 243.275L267.401 207.113L233.56 243.275H292.773Z"/>
<path fill-rule="evenodd" clip-rule="evenodd" d="M59.2125 243.275L33.8409 207.113L0 243.275H59.2125Z"/>
<path fill-rule="evenodd" clip-rule="evenodd" d="M180.927 181.355L189.821 189.495C192.566 184.122 196.354 179.351 200.965 175.461L210.209 167.662L180.927 181.355Z"/>
</svg>
